<svg width="52" height="32" viewBox="0 0 52 32" fill="none" xmlns="http://www.w3.org/2000/svg">
<path d="M10.9489 7.81299V15.8989C11.8278 14.9875 12.8239 14.5317 13.9371 14.5317C15.2197 14.5317 16.2874 15.0103 17.1403 15.9673C17.9931 16.9178 18.4196 18.1027 18.4196 19.522C18.4196 20.9868 17.9899 22.1978 17.1305 23.1548C16.2776 24.1053 15.2002 24.5806 13.8981 24.5806C12.7978 24.5806 11.8147 24.1574 10.9489 23.311V24.3071H8.75159V7.81299H10.9489ZM16.1735 19.6196C16.1735 18.7082 15.9261 17.966 15.4313 17.3931C14.93 16.8071 14.3017 16.5142 13.5465 16.5142C12.7392 16.5142 12.0817 16.7974 11.5739 17.3638C11.0725 17.9237 10.8219 18.6528 10.8219 19.5513C10.8219 20.4757 11.0693 21.2147 11.5641 21.7681C12.0589 22.3345 12.7099 22.6177 13.5172 22.6177C14.2789 22.6177 14.9104 22.3345 15.4117 21.7681C15.9196 21.1951 16.1735 20.479 16.1735 19.6196ZM25.7555 14.7954H27.9625V24.3071H25.7555V23.311C24.8505 24.1574 23.8772 24.5806 22.8356 24.5806C21.5205 24.5806 20.4332 24.1053 19.5739 23.1548C18.721 22.1847 18.2946 20.9738 18.2946 19.522C18.2946 18.0962 18.721 16.908 19.5739 15.9575C20.4267 15.007 21.4944 14.5317 22.777 14.5317C23.8837 14.5317 24.8766 14.9875 25.7555 15.8989V14.7954ZM20.5406 19.522C20.5406 20.4334 20.7848 21.1756 21.2731 21.7485C21.7744 22.328 22.4059 22.6177 23.1676 22.6177C23.9814 22.6177 24.639 22.3377 25.1403 21.7778C25.6416 21.1984 25.8922 20.4627 25.8922 19.5708C25.8922 18.6789 25.6416 17.9432 25.1403 17.3638C24.639 16.7974 23.9879 16.5142 23.1871 16.5142C22.4319 16.5142 21.8004 16.8006 21.2926 17.3735C20.7913 17.953 20.5406 18.6691 20.5406 19.522ZM30.9332 7.81299V15.8989C31.8121 14.9875 32.8082 14.5317 33.9215 14.5317C35.2041 14.5317 36.2718 15.0103 37.1246 15.9673C37.9775 16.9178 38.4039 18.1027 38.4039 19.522C38.4039 20.9868 37.9742 22.1978 37.1149 23.1548C36.262 24.1053 35.1845 24.5806 33.8824 24.5806C32.7822 24.5806 31.7991 24.1574 30.9332 23.311V24.3071H28.736V7.81299H30.9332ZM36.1578 19.6196C36.1578 18.7082 35.9104 17.966 35.4156 17.3931C34.9143 16.8071 34.2861 16.5142 33.5309 16.5142C32.7236 16.5142 32.066 16.7974 31.5582 17.3638C31.0569 17.9237 30.8063 18.6528 30.8063 19.5513C30.8063 20.4757 31.0537 21.2147 31.5485 21.7681C32.0433 22.3345 32.6943 22.6177 33.5016 22.6177C34.2633 22.6177 34.8948 22.3345 35.3961 21.7681C35.9039 21.1951 36.1578 20.479 36.1578 19.6196ZM40.9254 14.7954V24.3071H38.7281V14.7954H40.9254ZM38.3961 10.8403C38.3961 10.4562 38.5361 10.1242 38.816 9.84424C39.096 9.56429 39.4313 9.42432 39.8219 9.42432C40.219 9.42432 40.5576 9.56429 40.8375 9.84424C41.1175 10.1177 41.2574 10.453 41.2574 10.8501C41.2574 11.2472 41.1175 11.5858 40.8375 11.8657C40.5641 12.1457 40.2288 12.2856 39.8317 12.2856C39.4345 12.2856 39.096 12.1457 38.816 11.8657C38.5361 11.5858 38.3961 11.244 38.3961 10.8403ZM41.7086 14.7954H43.9156V15.6743C44.6839 14.9126 45.5498 14.5317 46.5133 14.5317C47.6201 14.5317 48.4827 14.88 49.1012 15.5767C49.6351 16.1691 49.902 17.1359 49.902 18.4771V24.3071H47.6949V18.9946C47.6949 18.0571 47.5647 17.4093 47.3043 17.0513C47.0504 16.6867 46.5882 16.5044 45.9176 16.5044C45.1884 16.5044 44.6709 16.7453 44.3649 17.2271C44.0654 17.7023 43.9156 18.5324 43.9156 19.7173V24.3071H41.7086V14.7954Z" fill="black"/>
<path d="M13.58 7.06641V9.76172C12.2649 8.66146 10.9042 8.11133 9.49792 8.11133C7.94844 8.11133 6.64311 8.66797 5.58191 9.78125C4.5142 10.888 3.98035 12.2422 3.98035 13.8438C3.98035 15.4258 4.5142 16.7604 5.58191 17.8477C6.64962 18.9349 7.95821 19.4785 9.50769 19.4785C10.3085 19.4785 10.9888 19.3483 11.5487 19.0879C11.8612 18.9577 12.1835 18.7819 12.5155 18.5605C12.854 18.3392 13.2089 18.0723 13.58 17.7598V20.5039C12.2779 21.2396 10.9107 21.6074 9.47839 21.6074C7.32344 21.6074 5.48425 20.8555 3.96081 19.3516C2.44389 17.8346 1.68542 16.0052 1.68542 13.8633C1.68542 11.9427 2.32019 10.2305 3.58972 8.72656C5.15222 6.88411 7.17371 5.96289 9.65417 5.96289C11.0083 5.96289 12.3169 6.33073 13.58 7.06641Z" fill="black"/>
</svg>
